<svg xmlns="http://www.w3.org/2000/svg" viewBox="0 0 480 480"><defs><linearGradient id="d" x1="50%" x2="50%" y1="0%" y2="100%"><stop offset="0%" style="stop-color:#55cdf3;stop-opacity:1"/><stop offset="100%" style="stop-color:#288aed;stop-opacity:1"/></linearGradient><linearGradient id="e" x1="100%" x2="0%" y1="0%" y2="100%"><stop offset="0%" style="stop-color:#1e5cdd;stop-opacity:1"/><stop offset="100%" style="stop-color:#2d70cb;stop-opacity:1"/></linearGradient><linearGradient id="c" x1="0%" x2="100%" y1="50%" y2="50%"><stop offset="0%" style="stop-color:#ffc401;stop-opacity:1"/><stop offset="100%" style="stop-color:#fae309;stop-opacity:1"/></linearGradient><linearGradient id="b" x1="0%" x2="100%" y1="50%" y2="50%"><stop offset="0%" style="stop-color:#fd7503;stop-opacity:1"/><stop offset="100%" style="stop-color:#ffc401;stop-opacity:1"/></linearGradient><linearGradient id="a" x1="50%" x2="50%" y1="0%" y2="100%"><stop offset="0%" style="stop-color:#288aed;stop-opacity:1"/><stop offset="100%" style="stop-color:#5643d6;stop-opacity:1"/></linearGradient></defs><path fill="url(#a)" d="M160 480V160h160v160a160 160 0 0 1-160 160"/><path fill="url(#b)" d="M0 320h320V160H160A160 160 0 0 0 0 320"/><path fill="#FE7A02" d="M160 160v160h160V160Z"/><path fill="#FF7101" d="M320 160H160a160 160 0 0 0 160 160Z"/><path fill="url(#c)" d="M320 160v160A160 160 0 0 0 433.137 46.863Z"/><path fill="#00000012" d="M0 320h320A160 160 0 0 0 433.137 46.863a113.137 116.863 0 0 1-80 193.137H160A160 80 0 0 0 0 320"/><path fill="url(#d)" d="M320 160 433.137 46.863A160 160 0 0 0 160 160Z"/><path fill="#2256A7" d="M320 160h66.274A66.274 66.274 0 1 0 320 93.726Z"/><path fill="#234D7E" d="M320 160h33.137v-33.137H320Z"/><path fill="url(#e)" d="M353.137 126.863H400A46.863 46.863 0 1 0 353.137 80Z"/><path fill="#8A43F5" d="M160 480a160 160 0 0 0 113.137-46.863A160 160 0 0 0 160 386.274Z"/></svg>